arm26_states
nRows=22
nColumns=17

# SIMM Motion File Header:
name arm26_states
datacolumns 17
datarows 22
otherdata 1
range 0.26912499999999906000 0.27412499999999962000
endheader
time	r_shoulder_elev	r_elbow_flex	r_shoulder_elev_u	r_elbow_flex_u	TRIlong.activation	TRIlong.fiber_length	TRIlat.activation	TRIlat.fiber_length	TRImed.activation	TRImed.fiber_length	BIClong.activation	BIClong.fiber_length	BICshort.activation	BICshort.fiber_length	BRA.activation	BRA.fiber_length
      0.26912499999999906000	     -0.06239944585873485200	     14.06805395678393600000	     -7.41629124379495150000	    120.13553301202242000000	      0.24799483367393774000	      0.13992227500576385000	      0.40055388552618776000	      0.07423554019735434400	      0.43132254752517740000	      0.06937171581258004500	      0.87730423667576096000	      0.14165316759695953000	      0.87418588699171684000	      0.14084686618575779000	      0.44479965343755118000	      0.08910323464729266700
      0.26937499999999903000	     -0.06425414043606035600	     14.09810094779987300000	     -7.41674799562271400000	    120.22857420678397000000	      0.24644969953936552000	      0.13993852044186700000	      0.40753351167672081000	      0.07424106046855906400	      0.43926060124634975000	      0.06937695838045929200	      0.88033360585189202000	      0.14163527103510273000	      0.87729224849551513000	      0.14082793377554653000	      0.44206259333101228000	      0.08909889289836051000
      0.26962499999999900000	     -0.06610551291058855400	     14.12816219331087100000	     -7.38952383663438270000	    120.24901539911386000000	      0.24491419237749451000	      0.13995477890144320000	      0.41479671259553175000	      0.07424627126904126400	      0.44750499882636530000	      0.06938190997781795700	      0.88328817963691375000	      0.14161731246902332000	      0.88032191366086976000	      0.14080900610184738000	      0.43933116175248277000	      0.08909451506290584600
      0.26987499999999898000	     -0.06794650311465806600	     14.15821913672421000000	     -7.33351124910624290000	    120.19363822569818000000	      0.24338825220738111000	      0.13997104622310261000	      0.42233648679667785000	      0.07425118128021594700	      0.45604817660843477000	      0.06938657865354942700	      0.88616980473560392000	      0.14159929952716488000	      0.88327677612711508000	      0.14079009000171652000	      0.43660532363336613000	      0.08909010342851317300
      0.27000000000000007000	     -0.06886082482229871600	     14.17323998184388100000	     -7.29438286815660140000	    120.13656840068987000000	      0.24262885110194393000	      0.13997918192650802000	      0.42620794831077380000	      0.07425352610982158300	      0.46042949563563751000	      0.06938880930320591400	      0.88758382612741360000	      0.14159027497051990000	      0.88472673529738521000	      0.14078063835016419000	      0.43524449122107955000	      0.08908788571975523300
      0.27012500000000006000	     -0.06976980924864022200	     14.18825251483053200000	     -7.24830496237402680000	    120.06116398760135000000	      0.24188284736895460000	      0.13998731752165514000	      0.43003107882277453000	      0.07425580059823282100	      0.46475612577396536000	      0.06939097383076130200	      0.88898028226342063000	      0.14158123955162716000	      0.88615868278559973000	      0.14077119202860888000	      0.43390598611337194000	      0.08908566022845800000
      0.27037500000000003000	     -0.07156848846852485700	     14.21824401192372500000	     -7.13679024772016660000	    119.85937591593222000000	      0.24046387997213722000	      0.14000357031942592000	      0.43719281561674073000	      0.07426017699881355700	      0.47287127868238865000	      0.06939514285667837400	      0.89172136884817255000	      0.14156313960998410000	      0.88896943490935565000	      0.14075231846927336000	      0.43135837466423110000	      0.08908118112303394000
      0.27062500000000000000	     -0.07333601792419984500	     14.24817643211520500000	     -6.99904726464586610000	    119.58836526879549000000	      0.23914179355956983000	      0.14001976712398781000	      0.44372182614891464000	      0.07426438706242730100	      0.48028373264990093000	      0.06939916212087898800	      0.89439477776432386000	      0.14154500650103399000	      0.89171078931623238000	      0.14073347534750980000	      0.42898239886630696000	      0.08907665585854629400
      0.27087499999999998000	     -0.07506581023685897400	     14.27803237249826700000	     -6.83488980543824720000	    119.24751196051787000000	      0.23791598451337240000	      0.14003587385886540000	      0.44963373248628918000	      0.07426849675597321800	      0.48701083737509010000	      0.06940309737726828300	      0.89700217997945830000	      0.14152684676484115000	      0.89438445944195677000	      0.14071466843730115000	      0.42677698934206659000	      0.08907207516580127600
      0.27112499999999995000	     -0.07675127187693167600	     14.30779438857132900000	     -6.64444791862423220000	    118.83708383873892000000	      0.23678585297651178000	      0.14005186045278181000	      0.45494377098565075000	      0.07427256275117176400	      0.49306951419096168000	      0.06940700506241294400	      0.89954520520482306000	      0.14150866669400117000	      0.89699211641737697000	      0.14069590327853462000	      0.42474108337674382000	      0.08906743098998667900
      0.27137499999999992000	     -0.07838587741463755300	     14.33744520276477300000	     -6.42813091878279060000	    118.35813338860382000000	      0.23575080282936969000	      0.14006770056330273000	      0.45966680181679803000	      0.07427663467373482600	      0.49847626664132272000	      0.06941093454412965200	      0.90202544291395159000	      0.14149047234377585000	      0.89953539011297368000	      0.14067718519028413000	      0.42287362487682684000	      0.08906271641147134300
      0.27162499999999989000	     -0.07996322175036137100	     14.36696784992027200000	     -6.18647198417871640000	    117.81204939655524000000	      0.23481024166645670000	      0.14008337127473400000	      0.46381731825063188000	      0.07428075673573980600	      0.50324719079603364000	      0.06941492974625024200	      0.90444444333613594000	      0.14147226954120654000	      0.90201587015758222000	      0.14065851928193984000	      0.42117356432880426000	      0.08905792436124972100
      0.27187499999999987000	     -0.08147708588826438300	     14.39634586313348700000	     -5.92047147723409230000	    117.20155982880705000000	      0.23396358077327134000	      0.14009885278664622000	      0.46740945571792120000	      0.07428496894596688100	      0.50739798531157576000	      0.06941903034753409100	      0.90680371842537100000	      0.14145406389346343000	      0.90443510693196238000	      0.14063991046277333000	      0.41963985875816856000	      0.08905305111471535600
      0.27212499999999984000	     -0.08292152106696142100	     14.42556351389087000000	     -5.63123882623590970000	    116.52969273738192000000	      0.23321023510330335000	      0.14011412810971732000	      0.47045700064440743000	      0.07428930802842090300	      0.51094396124322294000	      0.06942327268686283900	      0.90910474280537446000	      0.14143586079483614000	      0.90679461253783677000	      0.14062136344875531000	      0.41827147168867462000	      0.08904809284462940300
      0.27237499999999981000	     -0.08429087624211620300	     14.45460588903268500000	     -5.32006248089960380000	    115.79999508750142000000	      0.23254962325518025000	      0.14012918137198763000	      0.47297339906776908000	      0.07429380812966095100	      0.51390005161494878000	      0.06942769045590400900	      0.91134895469127508000	      0.14141766543305215000	      0.90909586174300350000	      0.14060288276810240000	      0.41706737310185227000	      0.08904304638350657400
      0.27262499999999978000	     -0.08557984529586382100	     14.48345902807101200000	     -4.98840613580629010000	    115.01650808328833000000	      0.23198116744995625000	      0.14014399941168168000	      0.47497176504183314000	      0.07429850137272243900	      0.51628082075305337000	      0.06943231523746844200	      0.91353775678854354000	      0.14139948279487516000	      0.91134029290311425000	      0.14058447276548966000	      0.41602653939677109000	      0.08903790931069771600
      0.27287499999999976000	     -0.08678350705224172100	     14.51211003049032500000	     -4.63788696079637220000	    114.18368226136064000000	      0.23150429350854268000	      0.14015857414781016000	      0.47646488883328547000	      0.07430341829743417100	      0.51810047338934051000	      0.06943717692954379200	      0.91567251716972931000	      0.14138131767101200000	      0.91352930886069339000	      0.14056613760500242000	      0.41514795335005578000	      0.08903267987622887100
      0.27312499999999973000	     -0.08789736429605264600	     14.54054716504743500000	     -4.27027811379981430000	    113.30641828935308000000	      0.23111843082927908000	      0.14017289874198521000	      0.47746524491600367000	      0.07430858821487798500	      0.51937286353953815000	      0.06944230408280305200	      0.91775457012955042000	      0.14136317466042203000	      0.91566427782196003000	      0.14054788127202447000	      0.41443060407615090000	      0.08902735692584273800
      0.27337499999999970000	     -0.08891738163190336700	     14.56875997931545200000	     -3.88749948424546470000	    112.39004176841681000000	      0.23082301236564398000	      0.14018696739704503000	      0.47798499976800940000	      0.07431403949626094700	      0.52011150316250843000	      0.06944772417190638000	      0.91978521701887106000	      0.14134505817400084000	      0.91774653421200147000	      0.14052970757405062000	      0.41387348698783283000	      0.08902193982714845500
      0.27362499999999967000	     -0.08984002107232255700	     14.59673940282665700000	     -3.49160908451758710000	    111.44027891878955000000	      0.23061747460410459000	      0.14020077526572405000	      0.47806699606515524000	      0.07431979937801983000	      0.52032387215465903000	      0.06945346381507840100	      0.92176572705808824000	      0.14132697243767106000	      0.91977737950883243000	      0.14051162014051005000	      0.41347560375696818000	      0.08901642839711877700
      0.27387499999999965000	     -0.09066227458493990300	     14.62447784153089200000	     -3.08478066578100970000	    110.46319201768409000000	      0.23050125754210440000	      0.14021431837187168000	      0.47796449336914987000	      0.07432588088642005900	      0.52025101250164918000	      0.06945954246927613100	      0.92369733813043597000	      0.14130892149492078000	      0.92175808305686102000	      0.14049362242169702000	      0.41323596227551629000	      0.08901082283123731800
      0.27412499999999962000	     -0.09138168373215128900	     14.65196923481137500000	     -2.66922023869023310000	    109.46493684147458000000	      0.23047971889506899000	      0.14022759308550772000	      0.47774758299222875000	      0.07433227913759546400	      0.52005184323613762000	      0.06946595520576269400	      0.92558125755570231000	      0.14129090920888679000	      0.92368988286027054000	      0.14047571768701636000	      0.41315357661677488000	      0.08900512363495455300
